<svg width="45" height="33" viewBox="0 0 45 33" fill="none" xmlns="http://www.w3.org/2000/svg">
<path d="M41.4004 27.2998C41.4004 28.791 40.1916 29.9998 38.7004 29.9998H6.30039C4.80922 29.9998 3.60039 28.791 3.60039 27.2998V11.0998C3.60039 9.60863 4.80922 8.3998 6.30039 8.3998H9.46364C11.6119 8.3998 13.6722 7.54641 15.1912 6.02737L17.428 3.79061C17.9343 3.28427 18.6211 2.9998 19.3371 2.9998H25.6636C26.3797 2.9998 27.0665 3.28427 27.5728 3.79062L29.8096 6.02737C31.3286 7.54642 33.3889 8.3998 35.5371 8.3998H38.7004C40.1916 8.3998 41.4004 9.60863 41.4004 11.0998V27.2998ZM6.30039 5.6998C3.31805 5.6998 0.900391 8.11747 0.900391 11.0998V27.2998C0.900391 30.2821 3.31805 32.6998 6.30039 32.6998H38.7004C41.6827 32.6998 44.1004 30.2821 44.1004 27.2998V11.0998C44.1004 8.11747 41.6827 5.6998 38.7004 5.6998H35.5371C34.105 5.6998 32.7315 5.13088 31.7188 4.11818L29.482 1.88143C28.4693 0.868732 27.0958 0.299805 25.6636 0.299805H19.3371C17.905 0.299805 16.5315 0.86873 15.5188 1.88143L13.282 4.11818C12.2693 5.13088 10.8958 5.6998 9.46364 5.6998H6.30039Z" fill="#C4C4C4"/>
<path d="M22.5004 24.5998C18.7725 24.5998 15.7504 21.5777 15.7504 17.8498C15.7504 14.1219 18.7725 11.0998 22.5004 11.0998C26.2283 11.0998 29.2504 14.1219 29.2504 17.8498C29.2504 21.5777 26.2283 24.5998 22.5004 24.5998ZM22.5004 27.2998C27.7195 27.2998 31.9504 23.0689 31.9504 17.8498C31.9504 12.6307 27.7195 8.3998 22.5004 8.3998C17.2813 8.3998 13.0504 12.6307 13.0504 17.8498C13.0504 23.0689 17.2813 27.2998 22.5004 27.2998Z" fill="#C4C4C4"/>
<path d="M9.00039 12.4498C9.00039 13.1954 8.39598 13.7998 7.65039 13.7998C6.90481 13.7998 6.30039 13.1954 6.30039 12.4498C6.30039 11.7042 6.90481 11.0998 7.65039 11.0998C8.39598 11.0998 9.00039 11.7042 9.00039 12.4498Z" fill="#C4C4C4"/>
</svg>
