<svg width="18" height="18" viewBox="0 0 18 18" fill="none" xmlns="http://www.w3.org/2000/svg">
<g clip-path="url(#clip0_141_2645)">
<path d="M10.95 6H15.75C16.1478 6 16.5294 6.15804 16.8107 6.43934C17.092 6.72065 17.25 7.10218 17.25 7.5V9.078C17.2502 9.27402 17.212 9.46818 17.1375 9.6495L14.8163 15.2858C14.7596 15.4232 14.6635 15.5407 14.5399 15.6233C14.4164 15.706 14.2711 15.7501 14.1225 15.75H1.5C1.30109 15.75 1.11032 15.671 0.96967 15.5303C0.829018 15.3897 0.75 15.1989 0.75 15V7.5C0.75 7.30109 0.829018 7.11033 0.96967 6.96967C1.11032 6.82902 1.30109 6.75 1.5 6.75H4.1115C4.23157 6.75003 4.3499 6.72124 4.45653 6.66603C4.56315 6.61082 4.65497 6.53082 4.72425 6.43275L8.814 0.637504C8.8657 0.564239 8.94194 0.511924 9.0289 0.490047C9.11586 0.468169 9.20779 0.478176 9.288 0.518254L10.6485 1.1985C11.0314 1.38988 11.3373 1.70649 11.5153 2.09574C11.6933 2.48499 11.7329 2.92345 11.6273 3.33825L10.95 6ZM5.25 7.941V14.25H13.62L15.75 9.078V7.5H10.95C10.7216 7.49997 10.4961 7.44776 10.2909 7.34735C10.0857 7.24694 9.90617 7.10098 9.76596 6.92062C9.62575 6.74026 9.52859 6.53025 9.48189 6.30662C9.43519 6.08299 9.44019 5.85166 9.4965 5.63025L10.1738 2.96925C10.1949 2.88625 10.1871 2.79849 10.1515 2.72058C10.1159 2.64266 10.0546 2.57929 9.978 2.541L9.48225 2.2935L5.94975 7.2975C5.76225 7.563 5.52225 7.7805 5.25 7.941ZM3.75 8.25H2.25V14.25H3.75V8.25Z" fill="#828282"/>
</g>
<defs>
<clipPath id="clip0_141_2645">
<rect width="18" height="18" fill="white"/>
</clipPath>
</defs>
</svg>
