<svg width="18" height="18" viewBox="0 0 18 18" fill="none" xmlns="http://www.w3.org/2000/svg">
<g id="Component 1" clip-path="url(#clip0_141_2668)">
<path id="Vector" d="M1.5 6.75001H3.75V15.75H1.5C1.30109 15.75 1.11032 15.671 0.96967 15.5303C0.829018 15.3897 0.75 15.1989 0.75 15V7.50001C0.75 7.3011 0.829018 7.11033 0.96967 6.96968C1.11032 6.82903 1.30109 6.75001 1.5 6.75001ZM5.46975 5.78026L10.2697 0.980257C10.3335 0.916278 10.4183 0.877482 10.5084 0.871006C10.5985 0.86453 10.688 0.890808 10.7603 0.945007L11.4 1.42501C11.5777 1.55839 11.7119 1.7414 11.7857 1.95095C11.8595 2.1605 11.8696 2.38722 11.8148 2.60251L10.95 6.00001H15.75C16.1478 6.00001 16.5294 6.15804 16.8107 6.43935C17.092 6.72065 17.25 7.10218 17.25 7.50001V9.07801C17.2502 9.27403 17.212 9.46819 17.1375 9.64951L14.8162 15.2858C14.7596 15.4232 14.6634 15.5407 14.5399 15.6233C14.4164 15.706 14.2711 15.7501 14.1225 15.75H6C5.80109 15.75 5.61032 15.671 5.46967 15.5303C5.32902 15.3897 5.25 15.1989 5.25 15V6.31051C5.25004 6.11161 5.32909 5.92088 5.46975 5.78026Z" fill="#DD8A08"/>
</g>
<defs>
<clipPath id="clip0_141_2668">
<rect width="18" height="18" fill="white"/>
</clipPath>
</defs>
</svg>
